<?xml version="1.0" standalone="no"?>
<!DOCTYPE svg PUBLIC "-//W3C//DTD SVG 20010904//EN"
 "http://www.w3.org/TR/2001/REC-SVG-20010904/DTD/svg10.dtd">
<svg version="1.0" xmlns="http://www.w3.org/2000/svg"
 width="133.000000pt" height="133.000000pt" viewBox="0 0 133.000000 133.000000"
 preserveAspectRatio="xMidYMid meet">
<metadata>
Created by potrace 1.14, written by Peter Selinger 2001-2017
</metadata>
<g transform="translate(0.000000,133.000000) scale(0.100000,-0.100000)"
fill="#000000" stroke="none">
<path d="M1024 1195 c-137 -60 -134 -261 6 -318 130 -54 267 71 229 208 -27
96 -142 150 -235 110z"/>
<path d="M407 1173 c-1 0 -16 -3 -34 -6 -169 -26 -308 -155 -353 -326 -9 -34
-16 -193 -11 -246 1 -7 190 -10 561 -10 l561 0 -2 -47 c-6 -114 -104 -224
-223 -250 l-42 -9 1 -77 1 -77 49 1 c164 1 331 133 385 303 16 49 20 91 20
187 l0 124 -564 0 -564 0 10 42 c13 61 35 102 75 144 39 39 124 84 161 84 23
0 24 4 24 80 0 87 -1 88 -28 86 -14 0 -26 -2 -27 -3z"/>
</g>
</svg>
